<svg xmlns="http://www.w3.org/2000/svg" xmlns:xlink="http://www.w3.org/1999/xlink" width="20" height="20" viewBox="0 0 20 20">
  <defs>
    <clipPath id="clip-document">
      <rect width="20" height="20"/>
    </clipPath>
  </defs>
  <g id="document" clip-path="url(#clip-document)">
    <g id="document-2" data-name="document" transform="translate(4 1)">
      <path id="Path_27" data-name="Path 27" d="M28.478,75.727l3.6,3.591H29.817a1.343,1.343,0,0,1-1.339-1.339V75.727Z" transform="translate(-19.521 -75.727)" fill="none" stroke="#060707" stroke-linecap="round" stroke-linejoin="round" stroke-width="1"/>
      <path id="Path_28" data-name="Path 28" d="M20.355,93.583h-.57a1.343,1.343,0,0,1-1.339-1.339V77.066a1.343,1.343,0,0,1,1.339-1.339h7.675L31,79.3V92.244a1.343,1.343,0,0,1-1.339,1.339H23.909" transform="translate(-18.446 -75.727)" fill="none" stroke="#060707" stroke-linecap="round" stroke-linejoin="round" stroke-width="1"/>
      <circle id="Ellipse_33" data-name="Ellipse 33" cx="0.532" cy="0.532" r="0.532" transform="translate(1.468 3.286)" fill="#060707"/>
      <line id="Line_55" data-name="Line 55" x2="3.469" transform="translate(3.847 3.819)" fill="none" stroke="#060707" stroke-linecap="round" stroke-linejoin="round" stroke-width="1"/>
      <line id="Line_56" data-name="Line 56" x2="8.847" transform="translate(2 6.497)" fill="none" stroke="#060707" stroke-linecap="round" stroke-linejoin="round" stroke-width="1"/>
      <line id="Line_57" data-name="Line 57" x2="8.847" transform="translate(2 9.176)" fill="none" stroke="#060707" stroke-linecap="round" stroke-linejoin="round" stroke-width="1"/>
      <line id="Line_58" data-name="Line 58" x2="8.847" transform="translate(2 11.854)" fill="none" stroke="#060707" stroke-linecap="round" stroke-linejoin="round" stroke-width="1"/>
      <line id="Line_59" data-name="Line 59" x2="8.847" transform="translate(2 14.532)" fill="none" stroke="#060707" stroke-linecap="round" stroke-linejoin="round" stroke-width="1"/>
    </g>
  </g>
</svg>
